# xmcd CD database file generated by freedbAccess_ocx
#
# Track frame offsets:
#       150
#       15425
#       29865
#       44345
#       57842
#       70652
#       83867
#       96435
#       110350
#       121517
#       133952
#       147067
#       160635
#       174380
#       187982
#       199730
#
# Disc length: 2833 seconds
#
# Revision: 0
# Processed by: cddbd v1.4PL0 Copyright (c) Steve Scherf et al.
# Submitted via: CDnGo 2.00
#
DISCID=d30b0f10
DTITLE=Blind Blake - Masters Of Country Blues Guitar
DYEAR=1900
DGENRE=Blues
TTITLE0=Georgia Bound
TTITLE1=Hey Hey Daddy Blues
TTITLE2=West Coast Blues
TTITLE3=Diddie Wa Diddie
TTITLE4=Chump Man Blues
TTITLE5=Early Morning Blues
TTITLE6=C'mon Boys, Let's Do That Messin' Around
TTITLE7=That Will Never Happen No More
TTITLE8=Policy Blues
TTITLE9=He's In The Jailhouse Now
TTITLE10=Wabash Rag
TTITLE11=Guitar Chimes
TTITLE12=Blind Arthur's Breakdown
TTITLE13=Sweet Jivin' Mama
TTITLE14=Down In The Country
TTITLE15=Police Dog Blues
EXTD=
EXTT0=
EXTT1=
EXTT2=
EXTT3=
EXTT4=
EXTT5=
EXTT6=
EXTT7=
EXTT8=
EXTT9=
EXTT10=
EXTT11=
EXTT12=
EXTT13=
EXTT14=
EXTT15=
PLAYORDER=
